<svg width="20" height="22" viewBox="0 0 20 22" fill="none" xmlns="http://www.w3.org/2000/svg">
<path d="M10 1.375C11.8985 1.375 13.4375 2.91402 13.4375 4.8125V5.5H6.5625V4.8125C6.5625 2.91402 8.10152 1.375 10 1.375ZM14.8125 5.5V4.8125C14.8125 2.15463 12.6579 0 10 0C7.34213 0 5.1875 2.15463 5.1875 4.8125V5.5H0.375V19.25C0.375 20.7688 1.60622 22 3.125 22H16.875C18.3938 22 19.625 20.7688 19.625 19.25V5.5H14.8125ZM1.75 6.875H18.25V19.25C18.25 20.0094 17.6344 20.625 16.875 20.625H3.125C2.36561 20.625 1.75 20.0094 1.75 19.25V6.875Z" fill="#5B687B"/>
</svg>
