<svg width="24" height="16" viewBox="0 0 24 16" fill="none" xmlns="http://www.w3.org/2000/svg">
<path d="M11 0.600002C11.8667 0.600002 12.5667 0.900002 13.1 1.5C13.5667 2.1 13.8 2.86667 13.8 3.8C13.8 4.86667 13.3 6.26667 12.3 8C11.3 9.73334 9.9 11.3667 8.1 12.9C6.3 14.4333 4.26667 15.3667 2 15.7C1.2 15.7 0.8 15.4 0.8 14.8C0.8 14.3333 1.16667 14.1 1.9 14.1C4.03333 13.6333 5.8 12.6667 7.2 11.2C8.6 9.8 9.66667 8.5 10.4 7.30001C10.2667 7.30001 10.1667 7.30001 10.1 7.30001C10.0333 7.36667 9.96667 7.4 9.9 7.4C9.03333 7.4 8.33333 7.13334 7.8 6.6C7.26667 6.13334 7 5.46667 7 4.6C7 3.53334 7.4 2.6 8.2 1.8C8.93333 1 9.86667 0.600002 11 0.600002ZM20.8 0.600002C21.6 0.600002 22.2667 0.900002 22.8 1.5C23.2667 2.1 23.5 2.86667 23.5 3.8C23.5 4.86667 23 6.26667 22 8C21 9.73334 19.6333 11.3667 17.9 12.9C16.1 14.4333 14.0667 15.3667 11.8 15.7C11 15.7 10.6 15.4 10.6 14.8C10.6 14.3333 10.9333 14.1 11.6 14.1C13.8 13.6333 15.6 12.6667 17 11.2C18.3333 9.8 19.3667 8.5 20.1 7.30001C20.0333 7.30001 19.9667 7.30001 19.9 7.30001C19.7667 7.36667 19.6333 7.4 19.5 7.4C18.7 7.4 18.0333 7.13334 17.5 6.6C16.9667 6.13334 16.7 5.46667 16.7 4.6C16.7 3.53334 17.1 2.6 17.9 1.8C18.7 1 19.6667 0.600002 20.8 0.600002Z" fill="#00298E"/>
</svg>
