<svg width="24" height="24" viewBox="0 0 24 24" fill="none" xmlns="http://www.w3.org/2000/svg">
<path d="M2.5 4.35714C2.5 4.12981 2.59031 3.9118 2.75107 3.75105C2.91183 3.59031 3.12986 3.5 3.3572 3.5H3.99496C5.08075 3.5 5.73223 4.23029 6.10368 4.90914C6.3517 5.36171 6.53114 5.88629 6.67172 6.36171L6.78601 6.35714H21.0704C22.0191 6.35714 22.7048 7.26457 22.4443 8.17771L20.355 15.5023C20.1676 16.1593 19.7713 16.7373 19.2261 17.1489C18.6808 17.5605 18.0162 17.7833 17.333 17.7834H10.5348C9.84622 17.7835 9.17664 17.5573 8.62903 17.1399C8.08141 16.7224 7.68608 16.1366 7.50378 15.4726L6.63515 12.3046L5.19505 7.44971L5.1939 7.44057C5.0156 6.79257 4.84874 6.18571 4.59958 5.73314C4.3607 5.29314 4.16869 5.21429 3.9961 5.21429H3.3572C3.12986 5.21429 2.91183 5.12398 2.75107 4.96323C2.59031 4.80249 2.5 4.58447 2.5 4.35714ZM8.29812 11.8886L9.15647 15.0189C9.32791 15.6383 9.89137 16.0691 10.5348 16.0691H17.333C17.6436 16.0691 17.9457 15.968 18.1936 15.7809C18.4414 15.5939 18.6216 15.3312 18.7068 15.0326L20.6921 8.07143H7.1689L8.28212 11.828L8.29812 11.8886ZM12.215 21.2143C12.215 21.8205 11.9741 22.4019 11.5454 22.8305C11.1168 23.2592 10.5353 23.5 9.92909 23.5C9.32284 23.5 8.74142 23.2592 8.31273 22.8305C7.88405 22.4019 7.64322 21.8205 7.64322 21.2143C7.64322 20.6081 7.88405 20.0267 8.31273 19.598C8.74142 19.1694 9.32284 18.9286 9.92909 18.9286C10.5353 18.9286 11.1168 19.1694 11.5454 19.598C11.9741 20.0267 12.215 20.6081 12.215 21.2143ZM10.5006 21.2143C10.5006 21.0627 10.4404 20.9174 10.3332 20.8102C10.226 20.7031 10.0807 20.6429 9.92909 20.6429C9.77753 20.6429 9.63217 20.7031 9.525 20.8102C9.41783 20.9174 9.35762 21.0627 9.35762 21.2143C9.35762 21.3658 9.41783 21.5112 9.525 21.6183C9.63217 21.7255 9.77753 21.7857 9.92909 21.7857C10.0807 21.7857 10.226 21.7255 10.3332 21.6183C10.4404 21.5112 10.5006 21.3658 10.5006 21.2143ZM20.2155 21.2143C20.2155 21.8205 19.9747 22.4019 19.546 22.8305C19.1173 23.2592 18.5359 23.5 17.9296 23.5C17.3234 23.5 16.742 23.2592 16.3133 22.8305C15.8846 22.4019 15.6438 21.8205 15.6438 21.2143C15.6438 20.6081 15.8846 20.0267 16.3133 19.598C16.742 19.1694 17.3234 18.9286 17.9296 18.9286C18.5359 18.9286 19.1173 19.1694 19.546 19.598C19.9747 20.0267 20.2155 20.6081 20.2155 21.2143ZM18.5011 21.2143C18.5011 21.0627 18.4409 20.9174 18.3337 20.8102C18.2266 20.7031 18.0812 20.6429 17.9296 20.6429C17.7781 20.6429 17.6327 20.7031 17.5256 20.8102C17.4184 20.9174 17.3582 21.0627 17.3582 21.2143C17.3582 21.3658 17.4184 21.5112 17.5256 21.6183C17.6327 21.7255 17.7781 21.7857 17.9296 21.7857C18.0812 21.7857 18.2266 21.7255 18.3337 21.6183C18.4409 21.5112 18.5011 21.3658 18.5011 21.2143Z" fill="white"/>
</svg>
