<svg width="12" height="12" viewBox="0 0 12 12" fill="none" xmlns="http://www.w3.org/2000/svg">
<rect width="12" height="12" fill="white"/>
<path d="M6.08996 7.21481C6.07182 7.21481 6.05713 7.2399 6.05713 7.27085C6.05713 7.30181 6.07182 7.32689 6.08996 7.32689C6.1081 7.32689 6.12279 7.30181 6.12279 7.27085C6.12279 7.2399 6.1081 7.21481 6.08996 7.21481ZM6.09752 7.29392L6.08584 7.27944C6.08543 7.27892 6.08519 7.27811 6.08519 7.27725V7.23922C6.08519 7.23773 6.08591 7.23651 6.08678 7.23651H6.09314C6.09401 7.23651 6.09473 7.23773 6.09473 7.23922V7.27033L6.10313 7.28077C6.10385 7.28165 6.10399 7.28335 6.10348 7.28457L6.09974 7.29334C6.09923 7.29454 6.09823 7.29481 6.09752 7.29392Z" fill="black"/>
</svg>
