<svg width="4426" height="2593" viewBox="0 0 4426 2593" fill="none" xmlns="http://www.w3.org/2000/svg">
<rect width="4426" height="2593" fill="white"/>
<path d="M2246.11 1559C2239.42 1559 2234 1564.42 2234 1571.11C2234 1577.8 2239.42 1583.22 2246.11 1583.22C2252.8 1583.22 2258.22 1577.8 2258.22 1571.11C2258.22 1564.42 2252.8 1559 2246.11 1559ZM2248.9 1576.09L2244.59 1572.96C2244.44 1572.85 2244.35 1572.68 2244.35 1572.49V1564.27C2244.35 1563.95 2244.62 1563.69 2244.94 1563.69H2247.28C2247.6 1563.69 2247.87 1563.95 2247.87 1564.27V1571L2250.97 1573.25C2251.23 1573.44 2251.29 1573.81 2251.09 1574.07L2249.72 1575.97C2249.53 1576.23 2249.16 1576.29 2248.9 1576.09Z" fill="black"/>
</svg>
