<svg width="46" height="46" viewBox="0 0 46 46" fill="none" xmlns="http://www.w3.org/2000/svg">
<path fill-rule="evenodd" clip-rule="evenodd" d="M13.5513 0.220508C15.995 0.108008 16.7742 0.0830078 22.9992 0.0830078C29.2242 0.0830078 30.0033 0.110091 32.445 0.220508C34.8867 0.330924 36.5533 0.720508 38.0117 1.28509C39.5388 1.86217 40.9242 2.76426 42.07 3.93092C43.2367 5.07467 44.1367 6.45801 44.7117 7.98717C45.2783 9.44551 45.6658 11.1122 45.7783 13.5497C45.8908 15.9976 45.9158 16.7768 45.9158 22.9997C45.9158 29.2247 45.8888 30.0038 45.7783 32.4476C45.6679 34.8851 45.2783 36.5518 44.7117 38.0101C44.1367 39.5394 43.2352 40.9251 42.07 42.0705C40.9242 43.2372 39.5388 44.1372 38.0117 44.7122C36.5533 45.2788 34.8867 45.6663 32.4492 45.7788C30.0033 45.8913 29.2242 45.9163 22.9992 45.9163C16.7742 45.9163 15.995 45.8893 13.5513 45.7788C11.1138 45.6684 9.4471 45.2788 7.98877 44.7122C6.45944 44.1371 5.07381 43.2356 3.92835 42.0705C2.76248 40.9261 1.86026 39.5411 1.2846 38.0122C0.720019 36.5538 0.332519 34.8872 0.220019 32.4497C0.107519 30.0018 0.0825195 29.2226 0.0825195 22.9997C0.0825195 16.7747 0.109603 15.9955 0.220019 13.5538C0.330436 11.1122 0.720019 9.44551 1.2846 7.98717C1.86111 6.45818 2.76402 5.07324 3.93044 3.92884C5.07427 2.76322 6.4585 1.86101 7.98669 1.28509C9.44502 0.720508 11.1117 0.333008 13.5492 0.220508H13.5513ZM32.2596 4.34551C29.8429 4.23509 29.1179 4.21217 22.9992 4.21217C16.8804 4.21217 16.1554 4.23509 13.7388 4.34551C11.5034 4.44759 10.2909 4.82051 9.48252 5.13509C8.41377 5.55176 7.64919 6.04551 6.8471 6.84759C6.08678 7.58728 5.50164 8.48776 5.1346 9.48301C4.82002 10.2913 4.4471 11.5038 4.34502 13.7393C4.2346 16.1559 4.21169 16.8809 4.21169 22.9997C4.21169 29.1184 4.2346 29.8434 4.34502 32.2601C4.4471 34.4955 4.82002 35.708 5.1346 36.5163C5.50127 37.5101 6.08669 38.4122 6.8471 39.1518C7.58669 39.9122 8.48877 40.4976 9.48252 40.8643C10.2909 41.1788 11.5034 41.5518 13.7388 41.6538C16.1554 41.7643 16.8784 41.7872 22.9992 41.7872C29.12 41.7872 29.8429 41.7643 32.2596 41.6538C34.495 41.5518 35.7075 41.1788 36.5159 40.8643C37.5846 40.4476 38.3492 39.9538 39.1513 39.1518C39.9117 38.4122 40.4971 37.5101 40.8638 36.5163C41.1783 35.708 41.5513 34.4955 41.6533 32.2601C41.7638 29.8434 41.7867 29.1184 41.7867 22.9997C41.7867 16.8809 41.7638 16.1559 41.6533 13.7393C41.5513 11.5038 41.1783 10.2913 40.8638 9.48301C40.4471 8.41426 39.9533 7.64967 39.1513 6.84759C38.4115 6.08732 37.5111 5.5022 36.5159 5.13509C35.7075 4.82051 34.495 4.44759 32.2596 4.34551ZM20.0721 30.0643C21.7068 30.7447 23.5271 30.8366 25.222 30.3241C26.9168 29.8116 28.3812 28.7266 29.365 27.2543C30.3488 25.7821 30.791 24.014 30.6159 22.252C30.4409 20.49 29.6596 18.8434 28.4054 17.5934C27.6059 16.7944 26.6392 16.1826 25.5749 15.8021C24.5105 15.4215 23.3751 15.2817 22.2502 15.3926C21.1254 15.5036 20.0391 15.8625 19.0696 16.4437C18.1001 17.0248 17.2716 17.8137 16.6436 18.7535C16.0156 19.6933 15.6037 20.7607 15.4378 21.8788C15.2718 22.9968 15.3557 24.1378 15.6836 25.2195C16.0115 26.3012 16.5752 27.2968 17.334 28.1345C18.0928 28.9722 19.028 29.6313 20.0721 30.0643ZM14.67 14.6705C15.7638 13.5767 17.0623 12.7091 18.4915 12.1171C19.9206 11.5251 21.4523 11.2205 22.9992 11.2205C24.5461 11.2205 26.0778 11.5251 27.5069 12.1171C28.936 12.7091 30.2345 13.5767 31.3283 14.6705C32.4221 15.7643 33.2898 17.0628 33.8818 18.492C34.4737 19.9211 34.7784 21.4528 34.7784 22.9997C34.7784 24.5465 34.4737 26.0783 33.8818 27.5074C33.2898 28.9365 32.4221 30.235 31.3283 31.3288C29.1193 33.5379 26.1232 34.7789 22.9992 34.7789C19.8751 34.7789 16.879 33.5379 14.67 31.3288C12.461 29.1198 11.22 26.1237 11.22 22.9997C11.22 19.8756 12.461 16.8795 14.67 14.6705ZM37.3909 12.9747C37.6619 12.719 37.8789 12.4115 38.029 12.0705C38.1791 11.7294 38.2592 11.3617 38.2646 10.9891C38.2701 10.6165 38.2007 10.2466 38.0606 9.90136C37.9205 9.55607 37.7126 9.2424 37.4491 8.97892C37.1856 8.71544 36.8719 8.5075 36.5267 8.36742C36.1814 8.22734 35.8115 8.15796 35.4389 8.16339C35.0663 8.16882 34.6986 8.24895 34.3576 8.39904C34.0165 8.54913 33.709 8.76612 33.4533 9.03717C32.9561 9.56432 32.6838 10.2645 32.6944 10.9891C32.705 11.7137 32.9975 12.4057 33.5099 12.9181C34.0224 13.4305 34.7143 13.7231 35.4389 13.7336C36.1635 13.7442 36.8637 13.4719 37.3909 12.9747Z" fill="white"/>
</svg>
