<svg width="45" height="45" viewBox="0 0 45 45" fill="none" xmlns="http://www.w3.org/2000/svg">
<g clip-path="url(#clip0_1_180)">
<path fill-rule="evenodd" clip-rule="evenodd" d="M30.5 40.5C33.1522 40.5 35.6957 39.4464 37.5711 37.5711C39.4464 35.6957 40.5 33.1522 40.5 30.5C40.5 27.8478 39.4464 25.3043 37.5711 23.4289C35.6957 21.5536 33.1522 20.5 30.5 20.5C27.8478 20.5 25.3043 21.5536 23.4289 23.4289C21.5536 25.3043 20.5 27.8478 20.5 30.5C20.5 33.1522 21.5536 35.6957 23.4289 37.5711C25.3043 39.4464 27.8478 40.5 30.5 40.5ZM43 30.5C43 33.8152 41.683 36.9946 39.3388 39.3388C36.9946 41.683 33.8152 43 30.5 43C27.1848 43 24.0054 41.683 21.6612 39.3388C19.317 36.9946 18 33.8152 18 30.5C18 27.1848 19.317 24.0054 21.6612 21.6612C24.0054 19.317 27.1848 18 30.5 18C33.8152 18 36.9946 19.317 39.3388 21.6612C41.683 24.0054 43 27.1848 43 30.5Z" fill="#00298E"/>
<path d="M26.595 32.86C26.7125 34.35 27.89 35.51 30.0025 35.65V36.75H30.94V35.6425C33.1275 35.49 34.405 34.32 34.405 32.625C34.405 31.08 33.43 30.285 31.68 29.875L30.94 29.7V26.7C31.88 26.8075 32.475 27.32 32.6175 28.03H34.2625C34.145 26.5925 32.9125 25.47 30.94 25.3475V24.25H30.0025V25.375C28.135 25.5575 26.865 26.68 26.865 28.27C26.865 29.675 27.81 30.57 29.3825 30.935L30.0025 31.0875V34.2675C29.0425 34.1225 28.405 33.5925 28.2625 32.86H26.5925H26.595ZM29.995 29.475C29.0725 29.2625 28.5725 28.825 28.5725 28.17C28.5725 27.435 29.1125 26.885 30.0025 26.725V29.475H29.995ZM31.075 31.34C32.1975 31.6 32.7125 32.02 32.7125 32.7625C32.7125 33.61 32.07 34.19 30.94 34.2975V31.31L31.075 31.34Z" fill="#00298E"/>
<path d="M5.5 3C4.83696 3 4.20107 3.26339 3.73223 3.73223C3.26339 4.20107 3 4.83696 3 5.5L3 25.5C3 26.163 3.26339 26.7989 3.73223 27.2678C4.20107 27.7366 4.83696 28 5.5 28H15.7075C15.8525 27.14 16.07 26.305 16.3525 25.5H10.5C10.5 24.1739 9.97322 22.9021 9.03553 21.9645C8.09785 21.0268 6.82608 20.5 5.5 20.5V10.5C6.82608 10.5 8.09785 9.97322 9.03553 9.03553C9.97322 8.09785 10.5 6.82608 10.5 5.5H35.5C35.5 6.82608 36.0268 8.09785 36.9645 9.03553C37.9021 9.97322 39.1739 10.5 40.5 10.5V19.32C41.45 20.17 42.2925 21.14 43 22.205V5.5C43 4.83696 42.7366 4.20107 42.2678 3.73223C41.7989 3.26339 41.163 3 40.5 3H5.5Z" fill="#00298E"/>
<path d="M27.995 15.7075L28 15.5C27.9995 14.6389 27.7766 13.7926 27.353 13.043C26.9294 12.2934 26.3194 11.6659 25.5821 11.2213C24.8448 10.7766 24.0051 10.5299 23.1445 10.505C22.2838 10.4801 21.4313 10.6779 20.6695 11.0793C19.9077 11.4806 19.2625 12.0718 18.7963 12.7957C18.3301 13.5196 18.0588 14.3516 18.0085 15.2112C17.9583 16.0707 18.1309 16.9287 18.5095 17.702C18.8882 18.4752 19.4602 19.1376 20.17 19.625C22.3294 17.5681 25.0544 16.2039 27.995 15.7075Z" fill="#00298E"/>
</g>
<defs>
<clipPath id="clip0_1_180">
<rect width="40" height="40" fill="white" transform="translate(3 3)"/>
</clipPath>
</defs>
</svg>
