<svg width="40" height="211" viewBox="0 0 40 211" fill="none" xmlns="http://www.w3.org/2000/svg">
<rect width="44" height="211" fill="#F22F2F"/>
<rect x="3.5" y="3.5" width="37" height="204" stroke="white" stroke-dasharray="5 5"/>
<path d="M16.436 167.971L29 167.971L29 170.491L20.828 170.491L29 173.857L29 175.765L20.828 179.149L29 179.149L29 181.669L16.436 181.669L16.436 178.807L25.778 174.811L16.436 170.815L16.436 167.971ZM29.126 157.847C29.126 159.023 28.85 160.103 28.298 161.087C27.746 162.071 26.984 162.851 26.012 163.427C25.028 164.003 23.918 164.291 22.682 164.291C21.458 164.291 20.36 164.003 19.388 163.427C18.404 162.851 17.636 162.071 17.084 161.087C16.532 160.103 16.256 159.023 16.256 157.847C16.256 156.659 16.532 155.579 17.084 154.607C17.636 153.623 18.404 152.849 19.388 152.285C20.36 151.709 21.458 151.421 22.682 151.421C23.918 151.421 25.028 151.709 26.012 152.285C26.984 152.849 27.746 153.623 28.298 154.607C28.85 155.591 29.126 156.671 29.126 157.847ZM26.876 157.847C26.876 157.091 26.708 156.425 26.372 155.849C26.024 155.273 25.532 154.823 24.896 154.499C24.26 154.175 23.522 154.013 22.682 154.013C21.842 154.013 21.11 154.175 20.486 154.499C19.85 154.823 19.364 155.273 19.028 155.849C18.692 156.425 18.524 157.091 18.524 157.847C18.524 158.603 18.692 159.275 19.028 159.863C19.364 160.439 19.85 160.889 20.486 161.213C21.11 161.537 21.842 161.699 22.682 161.699C23.522 161.699 24.26 161.537 24.896 161.213C25.532 160.889 26.024 160.439 26.372 159.863C26.708 159.275 26.876 158.603 26.876 157.847ZM29 141.267L24.104 144.039L24.104 145.227L29 145.227L29 147.747L16.436 147.747L16.436 143.031C16.436 142.059 16.61 141.231 16.958 140.547C17.294 139.863 17.756 139.353 18.344 139.017C18.92 138.669 19.568 138.495 20.288 138.495C21.116 138.495 21.866 138.735 22.538 139.215C23.198 139.695 23.654 140.409 23.906 141.357L29 138.351L29 141.267ZM22.214 145.227L22.214 143.121C22.214 142.437 22.052 141.927 21.728 141.591C21.392 141.255 20.93 141.087 20.342 141.087C19.766 141.087 19.322 141.255 19.01 141.591C18.686 141.927 18.524 142.437 18.524 143.121L18.524 145.227L22.214 145.227ZM18.47 131.895L21.62 131.895L21.62 127.665L23.618 127.665L23.618 131.895L26.948 131.895L26.948 127.125L29 127.125L29 134.415L16.418 134.415L16.418 127.125L18.47 127.125L18.47 131.895ZM29.126 111.114C29.126 112.29 28.85 113.37 28.298 114.354C27.746 115.338 26.984 116.118 26.012 116.694C25.028 117.27 23.918 117.558 22.682 117.558C21.458 117.558 20.36 117.27 19.388 116.694C18.404 116.118 17.636 115.338 17.084 114.354C16.532 113.37 16.256 112.29 16.256 111.114C16.256 109.926 16.532 108.846 17.084 107.874C17.636 106.89 18.404 106.116 19.388 105.552C20.36 104.976 21.458 104.688 22.682 104.688C23.918 104.688 25.028 104.976 26.012 105.552C26.984 106.116 27.746 106.89 28.298 107.874C28.85 108.858 29.126 109.938 29.126 111.114ZM26.876 111.114C26.876 110.358 26.708 109.692 26.372 109.116C26.024 108.54 25.532 108.09 24.896 107.766C24.26 107.442 23.522 107.28 22.682 107.28C21.842 107.28 21.11 107.442 20.486 107.766C19.85 108.09 19.364 108.54 19.028 109.116C18.692 109.692 18.524 110.358 18.524 111.114C18.524 111.87 18.692 112.542 19.028 113.13C19.364 113.706 19.85 114.156 20.486 114.48C21.11 114.804 21.842 114.966 22.682 114.966C23.522 114.966 24.26 114.804 24.896 114.48C25.532 114.156 26.024 113.706 26.372 113.13C26.708 112.542 26.876 111.87 26.876 111.114ZM16.436 93.2555L18.47 93.2555L18.47 98.4935L21.692 98.4935L21.692 94.4795L23.69 94.4795L23.69 98.4935L29 98.4935L29 101.013L16.436 101.013L16.436 93.2555ZM16.436 81.9105L18.47 81.9105L18.47 87.1485L21.692 87.1485L21.692 83.1345L23.69 83.1345L23.69 87.1485L29 87.1485L29 89.6685L16.436 89.6685L16.436 81.9105ZM18.47 75.8036L21.62 75.8036L21.62 71.5736L23.618 71.5736L23.618 75.8036L26.948 75.8036L26.948 71.0336L29 71.0336L29 78.3236L16.418 78.3236L16.418 71.0336L18.47 71.0336L18.47 75.8036ZM29 60.4635L24.104 63.2355L24.104 64.4235L29 64.4235L29 66.9435L16.436 66.9435L16.436 62.2275C16.436 61.2555 16.61 60.4275 16.958 59.7435C17.294 59.0595 17.756 58.5495 18.344 58.2135C18.92 57.8655 19.568 57.6915 20.288 57.6915C21.116 57.6915 21.866 57.9315 22.538 58.4115C23.198 58.8915 23.654 59.6055 23.906 60.5535L29 57.5475L29 60.4635ZM22.214 64.4235L22.214 62.3175C22.214 61.6335 22.052 61.1235 21.728 60.7875C21.392 60.4515 20.93 60.2835 20.342 60.2835C19.766 60.2835 19.322 60.4515 19.01 60.7875C18.686 61.1235 18.524 61.6335 18.524 62.3175L18.524 64.4235L22.214 64.4235Z" fill="white"/>
<path d="M17.8125 35.5C18.6754 35.5 19.375 34.8004 19.375 33.9375C19.375 33.0746 18.6754 32.375 17.8125 32.375C16.9496 32.375 16.25 33.0746 16.25 33.9375C16.25 34.8004 16.9496 35.5 17.8125 35.5Z" fill="white"/>
<path d="M22.5 46.4375C22.3972 46.4381 22.2953 46.4184 22.2001 46.3795C22.1049 46.3406 22.0183 46.2833 21.9453 46.2109L13.5859 37.8438C13.2925 37.5521 13.1267 37.1559 13.125 36.7422V30.8125C13.125 30.5035 13.2166 30.2014 13.3883 29.9444C13.56 29.6875 13.804 29.4872 14.0896 29.3689C14.3751 29.2507 14.6892 29.2197 14.9923 29.28C15.2954 29.3403 15.5738 29.4891 15.7924 29.7076C16.0109 29.9262 16.1597 30.2046 16.22 30.5077C16.2803 30.8108 16.2493 31.1249 16.1311 31.4104C16.0128 31.696 15.8125 31.94 15.5556 32.1117C15.2986 32.2834 14.9965 32.375 14.6875 32.375L20.6172 29.25C21.0309 29.2517 21.4271 29.4175 21.7188 29.7109L30.0859 38.0703C30.1592 38.1429 30.2173 38.2293 30.2569 38.3245C30.2966 38.4198 30.317 38.5219 30.317 38.625C30.317 38.7281 30.2966 38.8302 30.2569 38.9255C30.2173 39.0207 30.1592 39.1071 30.0859 39.1797L23.0547 46.2109C22.9817 46.2833 22.8951 46.3406 22.7999 46.3795C22.7047 46.4184 22.6028 46.4381 22.5 46.4375ZM14.6875 30.8125V36.7422L22.5 44.5547L28.4297 38.625L20.6172 30.8125H14.6875Z" fill="white"/>
<path d="M31.6484 33.3828L23.2812 25.0234C22.9896 24.73 22.5934 24.5642 22.1797 24.5625H16.25V27.6875C16.559 27.6875 16.8611 27.5959 17.1181 27.4242C17.375 27.2525 17.5753 27.0085 17.6936 26.7229C17.8118 26.4374 17.8428 26.1233 17.7825 25.8202C17.7222 25.5171 17.5734 25.2387 17.3549 25.0201C17.1363 24.8016 16.8579 24.6528 16.5548 24.5925C16.2517 24.5322 15.9376 24.5632 15.6521 24.6814C15.3665 24.7997 15.1225 25 14.9508 25.2569C14.7791 25.5139 14.6875 25.816 14.6875 26.125V27.6875H16.25V26.125H22.1797L29.9922 33.9375L28.9766 34.9453L30.0859 36.0547L31.6484 34.4922C31.7217 34.4196 31.7798 34.3332 31.8194 34.238C31.8591 34.1427 31.8795 34.0406 31.8795 33.9375C31.8795 33.8344 31.8591 33.7323 31.8194 33.637C31.7798 33.5418 31.7217 33.4554 31.6484 33.3828Z" fill="white"/>
</svg>
