<svg width="24" height="16" viewBox="0 0 24 16" fill="none" xmlns="http://www.w3.org/2000/svg">
<path d="M13 15.4C12.1333 15.4 11.4333 15.1 10.9 14.5C10.4333 13.9 10.2 13.1333 10.2 12.2C10.2 11.1333 10.7 9.73333 11.7 8C12.7 6.26666 14.1 4.63333 15.9 3.1C17.7 1.56666 19.7333 0.633328 22 0.299995C22.8 0.299995 23.2 0.599996 23.2 1.2C23.2 1.66666 22.8333 1.9 22.1 1.9C19.9667 2.36666 18.2 3.33333 16.8 4.8C15.4 6.2 14.3333 7.5 13.6 8.69999C13.7333 8.69999 13.8333 8.69999 13.9 8.69999C13.9667 8.63333 14.0333 8.6 14.1 8.6C14.9667 8.6 15.6667 8.86666 16.2 9.4C16.7333 9.86666 17 10.5333 17 11.4C17 12.4667 16.6 13.4 15.8 14.2C15.0667 15 14.1333 15.4 13 15.4ZM3.2 15.4C2.4 15.4 1.73333 15.1 1.2 14.5C0.733333 13.9 0.5 13.1333 0.5 12.2C0.5 11.1333 1 9.73333 2 8C3 6.26666 4.36667 4.63333 6.1 3.1C7.9 1.56666 9.93333 0.633328 12.2 0.299995C13 0.299995 13.4 0.599996 13.4 1.2C13.4 1.66666 13.0667 1.9 12.4 1.9C10.2 2.36666 8.4 3.33333 7 4.8C5.66667 6.2 4.63333 7.5 3.9 8.69999C3.96667 8.69999 4.03333 8.69999 4.1 8.69999C4.23333 8.63333 4.36667 8.6 4.5 8.6C5.3 8.6 5.96667 8.86666 6.5 9.4C7.03333 9.86666 7.3 10.5333 7.3 11.4C7.3 12.4667 6.9 13.4 6.1 14.2C5.3 15 4.33333 15.4 3.2 15.4Z" fill="#00298E"/>
</svg>
