<svg width="45" height="45" viewBox="0 0 45 45" fill="none" xmlns="http://www.w3.org/2000/svg">
<g clip-path="url(#clip0_1_172)">
<path d="M8 5.5C7.33696 5.5 6.70107 5.76339 6.23223 6.23223C5.76339 6.70107 5.5 7.33696 5.5 8V38C5.5 38.663 5.76339 39.2989 6.23223 39.7678C6.70107 40.2366 7.33696 40.5 8 40.5H38C38.663 40.5 39.2989 40.2366 39.7678 39.7678C40.2366 39.2989 40.5 38.663 40.5 38V8C40.5 7.33696 40.2366 6.70107 39.7678 6.23223C39.2989 5.76339 38.663 5.5 38 5.5H26.75C26.087 5.5 25.4511 5.76339 24.9822 6.23223C24.5134 6.70107 24.25 7.33696 24.25 8V26.2325L30.865 19.615C31.0997 19.3803 31.4181 19.2484 31.75 19.2484C32.0819 19.2484 32.4003 19.3803 32.635 19.615C32.8697 19.8497 33.0016 20.1681 33.0016 20.5C33.0016 20.8319 32.8697 21.1503 32.635 21.385L23.885 30.135C23.7689 30.2514 23.6309 30.3438 23.4791 30.4068C23.3272 30.4698 23.1644 30.5022 23 30.5022C22.8356 30.5022 22.6728 30.4698 22.5209 30.4068C22.3691 30.3438 22.2311 30.2514 22.115 30.135L13.365 21.385C13.2488 21.2688 13.1566 21.1308 13.0937 20.979C13.0308 20.8271 12.9984 20.6644 12.9984 20.5C12.9984 20.3356 13.0308 20.1729 13.0937 20.021C13.1566 19.8692 13.2488 19.7312 13.365 19.615C13.4812 19.4988 13.6192 19.4066 13.771 19.3437C13.9229 19.2808 14.0856 19.2484 14.25 19.2484C14.4144 19.2484 14.5771 19.2808 14.729 19.3437C14.8808 19.4066 15.0188 19.4988 15.135 19.615L21.75 26.2325V8C21.75 6.67392 22.2768 5.40215 23.2145 4.46447C24.1521 3.52678 25.4239 3 26.75 3L38 3C39.3261 3 40.5979 3.52678 41.5355 4.46447C42.4732 5.40215 43 6.67392 43 8V38C43 39.3261 42.4732 40.5979 41.5355 41.5355C40.5979 42.4732 39.3261 43 38 43H8C6.67392 43 5.40215 42.4732 4.46447 41.5355C3.52678 40.5979 3 39.3261 3 38V8C3 6.67392 3.52678 5.40215 4.46447 4.46447C5.40215 3.52678 6.67392 3 8 3L14.25 3C14.5815 3 14.8995 3.1317 15.1339 3.36612C15.3683 3.60054 15.5 3.91848 15.5 4.25C15.5 4.58152 15.3683 4.89946 15.1339 5.13388C14.8995 5.3683 14.5815 5.5 14.25 5.5H8Z" fill="#00298E"/>
</g>
<defs>
<clipPath id="clip0_1_172">
<rect width="40" height="40" fill="white" transform="translate(3 3)"/>
</clipPath>
</defs>
</svg>
