<svg width="45" height="45" viewBox="0 0 45 45" fill="none" xmlns="http://www.w3.org/2000/svg">
<g clip-path="url(#clip0_1_159)">
<path d="M2 11.75C2 10.7554 2.39509 9.80161 3.09835 9.09835C3.80161 8.39509 4.75544 8 5.75 8H28.25C29.2446 8 30.1984 8.39509 30.9017 9.09835C31.6049 9.80161 32 10.7554 32 11.75V15.5H34.55C35.1118 15.5005 35.6664 15.6272 36.1727 15.8709C36.679 16.1145 37.124 16.4688 37.475 16.9075L41.1775 21.5325C41.7102 22.198 42.0003 23.0251 42 23.8775V29.25C42 30.2446 41.6049 31.1984 40.9016 31.9017C40.1984 32.6049 39.2446 33 38.25 33H37C37 34.3261 36.4732 35.5979 35.5355 36.5355C34.5979 37.4732 33.3261 38 32 38C30.6739 38 29.4021 37.4732 28.4645 36.5355C27.5268 35.5979 27 34.3261 27 33H14.5C14.5014 33.6665 14.3696 34.3265 14.1123 34.9413C13.855 35.556 13.4774 36.1132 13.0016 36.5799C12.5259 37.0467 11.9616 37.4136 11.342 37.6591C10.7225 37.9046 10.06 38.0238 9.39373 38.0097C8.72742 37.9955 8.07067 37.8483 7.46207 37.5766C6.85348 37.305 6.30534 36.9144 5.84987 36.4279C5.3944 35.9413 5.04079 35.3687 4.80984 34.7435C4.57888 34.1183 4.47524 33.4533 4.505 32.7875C3.77262 32.5297 3.13831 32.051 2.68961 31.4173C2.24091 30.7837 1.99996 30.0264 2 29.25L2 11.75ZM5.235 30.39C5.687 29.65 6.32378 29.0403 7.08275 28.6209C7.84171 28.2015 8.69675 27.9868 9.56382 27.9979C10.4309 28.009 11.2801 28.2455 12.0281 28.6842C12.7761 29.1229 13.3971 29.7487 13.83 30.5H27.67C28.1098 29.7407 28.7407 29.1098 29.5 28.67V11.75C29.5 11.4185 29.3683 11.1005 29.1339 10.8661C28.8995 10.6317 28.5815 10.5 28.25 10.5H5.75C5.41848 10.5 5.10054 10.6317 4.86612 10.8661C4.6317 11.1005 4.5 11.4185 4.5 11.75V29.25C4.4998 29.4906 4.56905 29.7261 4.69943 29.9284C4.8298 30.1306 5.01577 30.2909 5.235 30.39ZM32 28C32.8777 28 33.7399 28.2311 34.4999 28.6699C35.26 29.1087 35.8912 29.7399 36.33 30.5H38.25C38.5815 30.5 38.8995 30.3683 39.1339 30.1339C39.3683 29.8995 39.5 29.5815 39.5 29.25V23.875C39.4995 23.5913 39.4025 23.3163 39.225 23.095L35.525 18.47C35.4081 18.3236 35.2598 18.2054 35.091 18.124C34.9222 18.0426 34.7374 18.0003 34.55 18H32V28ZM9.5 30.5C8.83696 30.5 8.20107 30.7634 7.73223 31.2322C7.26339 31.7011 7 32.337 7 33C7 33.663 7.26339 34.2989 7.73223 34.7678C8.20107 35.2366 8.83696 35.5 9.5 35.5C10.163 35.5 10.7989 35.2366 11.2678 34.7678C11.7366 34.2989 12 33.663 12 33C12 32.337 11.7366 31.7011 11.2678 31.2322C10.7989 30.7634 10.163 30.5 9.5 30.5ZM32 30.5C31.337 30.5 30.7011 30.7634 30.2322 31.2322C29.7634 31.7011 29.5 32.337 29.5 33C29.5 33.663 29.7634 34.2989 30.2322 34.7678C30.7011 35.2366 31.337 35.5 32 35.5C32.663 35.5 33.2989 35.2366 33.7678 34.7678C34.2366 34.2989 34.5 33.663 34.5 33C34.5 32.337 34.2366 31.7011 33.7678 31.2322C33.2989 30.7634 32.663 30.5 32 30.5Z" fill="#00298E"/>
</g>
<defs>
<clipPath id="clip0_1_159">
<rect width="40" height="40" fill="white" transform="translate(2 3)"/>
</clipPath>
</defs>
</svg>
