<?xml version="1.0" encoding="utf-8"?>
<!-- Svg Vector Icons : http://www.onlinewebfonts.com/icon -->
<!DOCTYPE svg PUBLIC "-//W3C//DTD SVG 1.1//EN" "http://www.w3.org/Graphics/SVG/1.1/DTD/svg11.dtd">
<svg version="1.1" xmlns="http://www.w3.org/2000/svg" xmlns:xlink="http://www.w3.org/1999/xlink" x="0px" y="0px" viewBox="0 0 256 256" enable-background="new 0 0 256 256" xml:space="preserve">
<metadata> Svg Vector Icons : http://www.onlinewebfonts.com/icon </metadata>
<g><g><path fill="#000000" d="M246,59.9c-8.5,3.7-15.8,3.8-23.4,0.2c9.9-5.7,10.3-9.8,13.9-20.6c-9.2,5.3-19.5,9.2-30.3,11.3c-8.7-9-21.1-14.7-34.9-14.7c-26.4,0-47.8,20.8-47.8,46.4c0,3.6,0.4,7.2,1.2,10.6C85,91.1,49.8,72.6,26.2,44.6c-4.1,6.9-6.5,14.8-6.5,23.4c0,16.1,8.5,30.3,21.3,38.6c-7.8-0.2-15.2-2.3-21.6-5.8c0,0.2,0,0.4,0,0.6c0,22.5,16.5,41.3,38.3,45.5c-7,1.9-14.4,2.1-21.6,0.8c6.1,18.4,23.7,31.9,44.6,32.2c-20.5,15.5-45.8,22-70.8,19.2c21.1,13.2,46.3,20.9,73.2,20.9c87.9,0,135.9-70.7,135.9-132.1c0-2,0-4-0.1-6C228.4,75.3,239.6,69.2,246,59.9"/></g></g>
</svg>