<svg width="13" height="13" viewBox="0 0 13 13" fill="none" xmlns="http://www.w3.org/2000/svg">
<path d="M6.71484 0.591431C3.40033 0.591431 0.714844 3.27691 0.714844 6.59143C0.714844 9.90595 3.40033 12.5914 6.71484 12.5914C10.0294 12.5914 12.7148 9.90595 12.7148 6.59143C12.7148 3.27691 10.0294 0.591431 6.71484 0.591431ZM8.0963 9.06159L5.96242 7.51079C5.88742 7.45514 5.84388 7.36804 5.84388 7.27611V3.20433C5.84388 3.04466 5.97452 2.91401 6.1342 2.91401H7.29549C7.45517 2.91401 7.58581 3.04466 7.58581 3.20433V6.53579L9.1221 7.65353C9.25275 7.74788 9.27936 7.92933 9.185 8.05998L8.50275 8.99869C8.40839 9.12691 8.22694 9.15595 8.0963 9.06159Z" fill="black"/>
</svg>
