<svg width="45" height="45" viewBox="0 0 45 45" fill="none" xmlns="http://www.w3.org/2000/svg">
<path d="M15.345 6.975C12.964 7.63121 10.5991 8.34475 8.25251 9.115C8.03824 9.18441 7.84776 9.31261 7.70279 9.48499C7.55781 9.65736 7.46416 9.867 7.43251 10.09C6.04751 20.4825 9.24751 28.065 13.065 33.06C14.6813 35.196 16.6085 37.0777 18.7825 38.6425C19.6475 39.2525 20.4125 39.6925 21.015 39.975C21.315 40.1175 21.56 40.2125 21.7475 40.27C21.8295 40.2988 21.9141 40.3197 22 40.3325C22.0849 40.3187 22.1686 40.2978 22.25 40.27C22.44 40.2125 22.685 40.1175 22.985 39.975C23.585 39.6925 24.3525 39.25 25.2175 38.6425C27.3915 37.0777 29.3187 35.196 30.935 33.06C34.7525 28.0675 37.9525 20.4825 36.5675 10.09C36.5361 9.86689 36.4426 9.65712 36.2976 9.4847C36.1526 9.31227 35.9619 9.18415 35.7475 9.115C34.12 8.5825 31.3725 7.715 28.655 6.9775C25.88 6.225 23.3275 5.6675 22 5.6675C20.675 5.6675 18.12 6.225 15.345 6.9775V6.975ZM14.68 4.4C17.3925 3.6625 20.275 3 22 3C23.725 3 26.6075 3.6625 29.32 4.4C32.095 5.15 34.8925 6.0375 36.5375 6.575C37.2253 6.80213 37.835 7.21866 38.2967 7.77675C38.7584 8.33484 39.0533 9.01185 39.1475 9.73C40.6375 20.9225 37.18 29.2175 32.985 34.705C31.2061 37.0525 29.085 39.1196 26.6925 40.8375C25.8652 41.4319 24.9887 41.9547 24.0725 42.4C23.3725 42.73 22.62 43 22 43C21.38 43 20.63 42.73 19.9275 42.4C19.0113 41.9547 18.1348 41.432 17.3075 40.8375C14.9151 39.1196 12.794 37.0524 11.015 34.705C6.82001 29.2175 3.36251 20.9225 4.85251 9.73C4.94673 9.01185 5.24162 8.33484 5.70331 7.77675C6.16499 7.21866 6.77474 6.80213 7.46251 6.575C9.85049 5.79202 12.257 5.06681 14.68 4.4Z" fill="#00298E"/>
<path d="M29.1346 15.865C29.251 15.9812 29.3434 16.1191 29.4064 16.271C29.4694 16.4228 29.5019 16.5856 29.5019 16.75C29.5019 16.9145 29.4694 17.0773 29.4064 17.2291C29.3434 17.381 29.251 17.5189 29.1346 17.635L21.6346 25.135C21.5185 25.2514 21.3806 25.3438 21.2287 25.4068C21.0768 25.4698 20.914 25.5023 20.7496 25.5023C20.5852 25.5023 20.4224 25.4698 20.2705 25.4068C20.1187 25.3438 19.9807 25.2514 19.8646 25.135L16.1146 21.385C15.9984 21.2688 15.9062 21.1308 15.8433 20.979C15.7804 20.8271 15.748 20.6644 15.748 20.5C15.748 20.3357 15.7804 20.1729 15.8433 20.0211C15.9062 19.8692 15.9984 19.7313 16.1146 19.615C16.2308 19.4988 16.3688 19.4066 16.5207 19.3437C16.6725 19.2808 16.8353 19.2485 16.9996 19.2485C17.164 19.2485 17.3267 19.2808 17.4786 19.3437C17.6304 19.4066 17.7684 19.4988 17.8846 19.615L20.7496 22.4825L27.3646 15.865C27.4807 15.7486 27.6187 15.6563 27.7705 15.5933C27.9224 15.5302 28.0852 15.4978 28.2496 15.4978C28.414 15.4978 28.5768 15.5302 28.7287 15.5933C28.8806 15.6563 29.0185 15.7486 29.1346 15.865Z" fill="#00298E"/>
</svg>
