<svg width="22" height="20" viewBox="0 0 22 20" fill="none" xmlns="http://www.w3.org/2000/svg">
<path d="M11 7.57464L9.77016 5.11496C9.4655 4.50564 8.93579 3.62902 8.18686 2.92127C7.44951 2.22446 6.56767 1.75004 5.5 1.75004C3.19551 1.75004 1.375 3.57367 1.375 5.76504C1.375 7.43027 2.13637 8.60548 3.94381 10.3988C4.40654 10.858 4.93535 11.3542 5.51864 11.9016C7.04269 13.3319 8.93869 15.1113 11 17.4892C13.0613 15.1113 14.9573 13.3319 16.4814 11.9016C17.0647 11.3542 17.5935 10.858 18.0562 10.3988C19.8636 8.60548 20.625 7.43027 20.625 5.76504C20.625 3.57367 18.8045 1.75004 16.5 1.75004C15.4323 1.75004 14.5505 2.22446 13.8131 2.92127C13.0642 3.62902 12.5345 4.50564 12.2298 5.11496L11 7.57464ZM11.5383 18.9758C11.2581 19.3085 10.7419 19.3085 10.4617 18.9758C8.25952 16.3609 6.26751 14.4914 4.62697 12.9517C1.78677 10.2862 0 8.6093 0 5.76504C0 2.78823 2.46243 0.375042 5.5 0.375042C7.70021 0.375042 9.23796 1.81785 10.1799 3.13586C10.5383 3.63747 10.8105 4.121 11 4.50004C11.1895 4.121 11.4617 3.63747 11.8201 3.13586C12.762 1.81785 14.2998 0.375042 16.5 0.375042C19.5376 0.375042 22 2.78823 22 5.76504C22 8.6093 20.2132 10.2862 17.373 12.9517C15.7325 14.4914 13.7405 16.3609 11.5383 18.9758Z" fill="#5B687B"/>
</svg>
