<?xml version="1.0" encoding="utf-8"?>
<!-- Svg Vector Icons : http://www.onlinewebfonts.com/icon -->
<!DOCTYPE svg PUBLIC "-//W3C//DTD SVG 1.1//EN" "http://www.w3.org/Graphics/SVG/1.1/DTD/svg11.dtd">
<svg version="1.1" xmlns="http://www.w3.org/2000/svg" xmlns:xlink="http://www.w3.org/1999/xlink" x="0px" y="0px" viewBox="0 0 256 256" enable-background="new 0 0 256 256" xml:space="preserve">
<metadata> Svg Vector Icons : http://www.onlinewebfonts.com/icon </metadata>
<g><g><path fill="#000000" d="M201.7,39.5H54.3C29.9,39.5,10,59.4,10,83.8v88.5c0,24.3,19.9,44.3,44.3,44.3h147.5c24.3,0,44.3-19.9,44.3-44.3V83.8C246,59.4,226.1,39.5,201.7,39.5z M231.2,172.2c0,7.8-3.1,15.2-8.7,20.8c-5.6,5.6-13,8.7-20.8,8.7H54.3c-7.8,0-15.2-3.1-20.8-8.7c-5.6-5.6-8.7-13-8.7-20.8V83.8c0-7.8,3.1-15.2,8.7-20.8c5.6-5.6,13-8.7,20.8-8.7h147.5c7.8,0,15.2,3.1,20.8,8.7c5.6,5.6,8.7,13,8.7,20.8V172.2z M98.5,187l73.8-59L98.5,69V187z"/></g></g>
</svg>